<?xml version="1.0" encoding="utf-8" ?>
<svg baseProfile="tiny" height="100%" version="1.2" width="100%" xmlns="http://www.w3.org/2000/svg" xmlns:ev="http://www.w3.org/2001/xml-events" xmlns:xlink="http://www.w3.org/1999/xlink"><defs /><rect fill="grey" height="100" width="100" x="0" y="0" /><text fill="#900" font-family="Arial" font-size="8px" font-weight="bold" stroke="none" x="10" y="50">navigation</text><rect fill="white" height="100" width="100" x="0" y="100" /><text fill="#900" font-family="Arial" font-size="8px" font-weight="bold" stroke="none" x="10" y="150">Detection_contact</text><rect fill="grey" height="100" width="100" x="0" y="200" /><text fill="#900" font-family="Arial" font-size="8px" font-weight="bold" stroke="none" x="10" y="250">Detection_distance</text><rect fill="grey" height="100" width="20" x="100" y="0" /><line stroke="black" x1="100" x2="120" y1="65" y2="65" /><line stroke="black" x1="100" x2="100" y1="65" y2="70" /><text fill="black" font-family="Arial" font-size="8px" font-weight="bold" stroke="none" x="100" y="80">0</text><rect fill="white" height="100" width="20" x="100" y="100" /><line stroke="black" x1="100" x2="120" y1="165" y2="165" /><line stroke="black" x1="100" x2="100" y1="165" y2="170" /><text fill="black" font-family="Arial" font-size="8px" font-weight="bold" stroke="none" x="100" y="180">0</text><rect fill="grey" height="100" width="20" x="100" y="200" /><line stroke="black" x1="100" x2="120" y1="265" y2="265" /><line stroke="black" x1="100" x2="100" y1="265" y2="270" /><text fill="black" font-family="Arial" font-size="8px" font-weight="bold" stroke="none" x="100" y="280">0</text><rect fill="grey" height="100" width="20" x="120" y="0" /><line stroke="black" x1="120" x2="140" y1="65" y2="65" /><line stroke="black" x1="120" x2="120" y1="65" y2="70" /><text fill="black" font-family="Arial" font-size="8px" font-weight="bold" stroke="none" x="120" y="80">1</text><rect fill="white" height="100" width="20" x="120" y="100" /><line stroke="black" x1="120" x2="140" y1="165" y2="165" /><line stroke="black" x1="120" x2="120" y1="165" y2="170" /><text fill="black" font-family="Arial" font-size="8px" font-weight="bold" stroke="none" x="120" y="180">1</text><rect fill="grey" height="100" width="20" x="120" y="200" /><line stroke="black" x1="120" x2="140" y1="265" y2="265" /><line stroke="black" x1="120" x2="120" y1="265" y2="270" /><text fill="black" font-family="Arial" font-size="8px" font-weight="bold" stroke="none" x="120" y="280">1</text><rect fill="grey" height="100" width="20" x="140" y="0" /><line stroke="black" x1="140" x2="160" y1="65" y2="65" /><line stroke="black" x1="140" x2="140" y1="65" y2="70" /><text fill="black" font-family="Arial" font-size="8px" font-weight="bold" stroke="none" x="140" y="80">2</text><rect fill="white" height="100" width="20" x="140" y="100" /><line stroke="black" x1="140" x2="160" y1="165" y2="165" /><line stroke="black" x1="140" x2="140" y1="165" y2="170" /><text fill="black" font-family="Arial" font-size="8px" font-weight="bold" stroke="none" x="140" y="180">2</text><rect fill="grey" height="100" width="20" x="140" y="200" /><line stroke="black" x1="140" x2="160" y1="265" y2="265" /><line stroke="black" x1="140" x2="140" y1="265" y2="270" /><text fill="black" font-family="Arial" font-size="8px" font-weight="bold" stroke="none" x="140" y="280">2</text><rect fill="grey" height="100" width="20" x="160" y="0" /><line stroke="black" x1="160" x2="180" y1="65" y2="65" /><line stroke="black" x1="160" x2="160" y1="65" y2="70" /><text fill="black" font-family="Arial" font-size="8px" font-weight="bold" stroke="none" x="160" y="80">3</text><rect fill="white" height="100" width="20" x="160" y="100" /><line stroke="black" x1="160" x2="180" y1="165" y2="165" /><line stroke="black" x1="160" x2="160" y1="165" y2="170" /><text fill="black" font-family="Arial" font-size="8px" font-weight="bold" stroke="none" x="160" y="180">3</text><rect fill="grey" height="100" width="20" x="160" y="200" /><line stroke="black" x1="160" x2="180" y1="265" y2="265" /><line stroke="black" x1="160" x2="160" y1="265" y2="270" /><text fill="black" font-family="Arial" font-size="8px" font-weight="bold" stroke="none" x="160" y="280">3</text><rect fill="grey" height="100" width="20" x="180" y="0" /><line stroke="black" x1="180" x2="200" y1="65" y2="65" /><line stroke="black" x1="180" x2="180" y1="65" y2="70" /><text fill="black" font-family="Arial" font-size="8px" font-weight="bold" stroke="none" x="180" y="80">4</text><rect fill="white" height="100" width="20" x="180" y="100" /><line stroke="black" x1="180" x2="200" y1="165" y2="165" /><line stroke="black" x1="180" x2="180" y1="165" y2="170" /><text fill="black" font-family="Arial" font-size="8px" font-weight="bold" stroke="none" x="180" y="180">4</text><rect fill="grey" height="100" width="20" x="180" y="200" /><line stroke="black" x1="180" x2="200" y1="265" y2="265" /><line stroke="black" x1="180" x2="180" y1="265" y2="270" /><text fill="black" font-family="Arial" font-size="8px" font-weight="bold" stroke="none" x="180" y="280">4</text><rect fill="grey" height="100" width="20" x="200" y="0" /><line stroke="black" x1="200" x2="220" y1="65" y2="65" /><line stroke="black" x1="200" x2="200" y1="65" y2="70" /><text fill="black" font-family="Arial" font-size="8px" font-weight="bold" stroke="none" x="200" y="80">5</text><rect fill="white" height="100" width="20" x="200" y="100" /><line stroke="black" x1="200" x2="220" y1="165" y2="165" /><line stroke="black" x1="200" x2="200" y1="165" y2="170" /><text fill="black" font-family="Arial" font-size="8px" font-weight="bold" stroke="none" x="200" y="180">5</text><rect fill="grey" height="100" width="20" x="200" y="200" /><line stroke="black" x1="200" x2="220" y1="265" y2="265" /><line stroke="black" x1="200" x2="200" y1="265" y2="270" /><text fill="black" font-family="Arial" font-size="8px" font-weight="bold" stroke="none" x="200" y="280">5</text><rect fill="grey" height="100" width="20" x="220" y="0" /><line stroke="black" x1="220" x2="240" y1="65" y2="65" /><line stroke="black" x1="220" x2="220" y1="65" y2="70" /><text fill="black" font-family="Arial" font-size="8px" font-weight="bold" stroke="none" x="220" y="80">6</text><rect fill="white" height="100" width="20" x="220" y="100" /><line stroke="black" x1="220" x2="240" y1="165" y2="165" /><line stroke="black" x1="220" x2="220" y1="165" y2="170" /><text fill="black" font-family="Arial" font-size="8px" font-weight="bold" stroke="none" x="220" y="180">6</text><rect fill="grey" height="100" width="20" x="220" y="200" /><line stroke="black" x1="220" x2="240" y1="265" y2="265" /><line stroke="black" x1="220" x2="220" y1="265" y2="270" /><text fill="black" font-family="Arial" font-size="8px" font-weight="bold" stroke="none" x="220" y="280">6</text><rect fill="grey" height="100" width="20" x="240" y="0" /><line stroke="black" x1="240" x2="260" y1="65" y2="65" /><line stroke="black" x1="240" x2="240" y1="65" y2="70" /><text fill="black" font-family="Arial" font-size="8px" font-weight="bold" stroke="none" x="240" y="80">7</text><rect fill="white" height="100" width="20" x="240" y="100" /><line stroke="black" x1="240" x2="260" y1="165" y2="165" /><line stroke="black" x1="240" x2="240" y1="165" y2="170" /><text fill="black" font-family="Arial" font-size="8px" font-weight="bold" stroke="none" x="240" y="180">7</text><rect fill="grey" height="100" width="20" x="240" y="200" /><line stroke="black" x1="240" x2="260" y1="265" y2="265" /><line stroke="black" x1="240" x2="240" y1="265" y2="270" /><text fill="black" font-family="Arial" font-size="8px" font-weight="bold" stroke="none" x="240" y="280">7</text><rect fill="grey" height="100" width="20" x="260" y="0" /><line stroke="black" x1="260" x2="280" y1="65" y2="65" /><line stroke="black" x1="260" x2="260" y1="65" y2="70" /><text fill="black" font-family="Arial" font-size="8px" font-weight="bold" stroke="none" x="260" y="80">8</text><rect fill="white" height="100" width="20" x="260" y="100" /><line stroke="black" x1="260" x2="280" y1="165" y2="165" /><line stroke="black" x1="260" x2="260" y1="165" y2="170" /><text fill="black" font-family="Arial" font-size="8px" font-weight="bold" stroke="none" x="260" y="180">8</text><rect fill="grey" height="100" width="20" x="260" y="200" /><line stroke="black" x1="260" x2="280" y1="265" y2="265" /><line stroke="black" x1="260" x2="260" y1="265" y2="270" /><text fill="black" font-family="Arial" font-size="8px" font-weight="bold" stroke="none" x="260" y="280">8</text><rect fill="grey" height="100" width="20" x="280" y="0" /><line stroke="black" x1="280" x2="300" y1="65" y2="65" /><line stroke="black" x1="280" x2="280" y1="65" y2="70" /><text fill="black" font-family="Arial" font-size="8px" font-weight="bold" stroke="none" x="280" y="80">9</text><rect fill="white" height="100" width="20" x="280" y="100" /><line stroke="black" x1="280" x2="300" y1="165" y2="165" /><line stroke="black" x1="280" x2="280" y1="165" y2="170" /><text fill="black" font-family="Arial" font-size="8px" font-weight="bold" stroke="none" x="280" y="180">9</text><rect fill="grey" height="100" width="20" x="280" y="200" /><line stroke="black" x1="280" x2="300" y1="265" y2="265" /><line stroke="black" x1="280" x2="280" y1="265" y2="270" /><text fill="black" font-family="Arial" font-size="8px" font-weight="bold" stroke="none" x="280" y="280">9</text><rect fill="grey" height="100" width="20" x="300" y="0" /><line stroke="black" x1="300" x2="320" y1="65" y2="65" /><line stroke="black" x1="300" x2="300" y1="65" y2="70" /><text fill="black" font-family="Arial" font-size="8px" font-weight="bold" stroke="none" x="300" y="80">10</text><rect fill="white" height="100" width="20" x="300" y="100" /><line stroke="black" x1="300" x2="320" y1="165" y2="165" /><line stroke="black" x1="300" x2="300" y1="165" y2="170" /><text fill="black" font-family="Arial" font-size="8px" font-weight="bold" stroke="none" x="300" y="180">10</text><rect fill="grey" height="100" width="20" x="300" y="200" /><line stroke="black" x1="300" x2="320" y1="265" y2="265" /><line stroke="black" x1="300" x2="300" y1="265" y2="270" /><text fill="black" font-family="Arial" font-size="8px" font-weight="bold" stroke="none" x="300" y="280">10</text><rect fill="grey" height="100" width="20" x="320" y="0" /><line stroke="black" x1="320" x2="340" y1="65" y2="65" /><line stroke="black" x1="320" x2="320" y1="65" y2="70" /><text fill="black" font-family="Arial" font-size="8px" font-weight="bold" stroke="none" x="320" y="80">11</text><rect fill="white" height="100" width="20" x="320" y="100" /><line stroke="black" x1="320" x2="340" y1="165" y2="165" /><line stroke="black" x1="320" x2="320" y1="165" y2="170" /><text fill="black" font-family="Arial" font-size="8px" font-weight="bold" stroke="none" x="320" y="180">11</text><rect fill="grey" height="100" width="20" x="320" y="200" /><line stroke="black" x1="320" x2="340" y1="265" y2="265" /><line stroke="black" x1="320" x2="320" y1="265" y2="270" /><text fill="black" font-family="Arial" font-size="8px" font-weight="bold" stroke="none" x="320" y="280">11</text><rect fill="grey" height="100" width="20" x="340" y="0" /><line stroke="black" x1="340" x2="360" y1="65" y2="65" /><line stroke="black" x1="340" x2="340" y1="65" y2="70" /><text fill="black" font-family="Arial" font-size="8px" font-weight="bold" stroke="none" x="340" y="80">12</text><rect fill="white" height="100" width="20" x="340" y="100" /><line stroke="black" x1="340" x2="360" y1="165" y2="165" /><line stroke="black" x1="340" x2="340" y1="165" y2="170" /><text fill="black" font-family="Arial" font-size="8px" font-weight="bold" stroke="none" x="340" y="180">12</text><rect fill="grey" height="100" width="20" x="340" y="200" /><line stroke="black" x1="340" x2="360" y1="265" y2="265" /><line stroke="black" x1="340" x2="340" y1="265" y2="270" /><text fill="black" font-family="Arial" font-size="8px" font-weight="bold" stroke="none" x="340" y="280">12</text><rect fill="grey" height="100" width="20" x="360" y="0" /><line stroke="black" x1="360" x2="380" y1="65" y2="65" /><line stroke="black" x1="360" x2="360" y1="65" y2="70" /><text fill="black" font-family="Arial" font-size="8px" font-weight="bold" stroke="none" x="360" y="80">13</text><rect fill="white" height="100" width="20" x="360" y="100" /><line stroke="black" x1="360" x2="380" y1="165" y2="165" /><line stroke="black" x1="360" x2="360" y1="165" y2="170" /><text fill="black" font-family="Arial" font-size="8px" font-weight="bold" stroke="none" x="360" y="180">13</text><rect fill="grey" height="100" width="20" x="360" y="200" /><line stroke="black" x1="360" x2="380" y1="265" y2="265" /><line stroke="black" x1="360" x2="360" y1="265" y2="270" /><text fill="black" font-family="Arial" font-size="8px" font-weight="bold" stroke="none" x="360" y="280">13</text><rect fill="grey" height="100" width="20" x="380" y="0" /><line stroke="black" x1="380" x2="400" y1="65" y2="65" /><line stroke="black" x1="380" x2="380" y1="65" y2="70" /><text fill="black" font-family="Arial" font-size="8px" font-weight="bold" stroke="none" x="380" y="80">14</text><rect fill="white" height="100" width="20" x="380" y="100" /><line stroke="black" x1="380" x2="400" y1="165" y2="165" /><line stroke="black" x1="380" x2="380" y1="165" y2="170" /><text fill="black" font-family="Arial" font-size="8px" font-weight="bold" stroke="none" x="380" y="180">14</text><rect fill="grey" height="100" width="20" x="380" y="200" /><line stroke="black" x1="380" x2="400" y1="265" y2="265" /><line stroke="black" x1="380" x2="380" y1="265" y2="270" /><text fill="black" font-family="Arial" font-size="8px" font-weight="bold" stroke="none" x="380" y="280">14</text><rect fill="grey" height="100" width="20" x="400" y="0" /><line stroke="black" x1="400" x2="420" y1="65" y2="65" /><line stroke="black" x1="400" x2="400" y1="65" y2="70" /><text fill="black" font-family="Arial" font-size="8px" font-weight="bold" stroke="none" x="400" y="80">15</text><rect fill="white" height="100" width="20" x="400" y="100" /><line stroke="black" x1="400" x2="420" y1="165" y2="165" /><line stroke="black" x1="400" x2="400" y1="165" y2="170" /><text fill="black" font-family="Arial" font-size="8px" font-weight="bold" stroke="none" x="400" y="180">15</text><rect fill="grey" height="100" width="20" x="400" y="200" /><line stroke="black" x1="400" x2="420" y1="265" y2="265" /><line stroke="black" x1="400" x2="400" y1="265" y2="270" /><text fill="black" font-family="Arial" font-size="8px" font-weight="bold" stroke="none" x="400" y="280">15</text><rect fill="grey" height="100" width="20" x="420" y="0" /><line stroke="black" x1="420" x2="440" y1="65" y2="65" /><line stroke="black" x1="420" x2="420" y1="65" y2="70" /><text fill="black" font-family="Arial" font-size="8px" font-weight="bold" stroke="none" x="420" y="80">16</text><rect fill="white" height="100" width="20" x="420" y="100" /><line stroke="black" x1="420" x2="440" y1="165" y2="165" /><line stroke="black" x1="420" x2="420" y1="165" y2="170" /><text fill="black" font-family="Arial" font-size="8px" font-weight="bold" stroke="none" x="420" y="180">16</text><rect fill="grey" height="100" width="20" x="420" y="200" /><line stroke="black" x1="420" x2="440" y1="265" y2="265" /><line stroke="black" x1="420" x2="420" y1="265" y2="270" /><text fill="black" font-family="Arial" font-size="8px" font-weight="bold" stroke="none" x="420" y="280">16</text><rect fill="grey" height="100" width="20" x="440" y="0" /><line stroke="black" x1="440" x2="460" y1="65" y2="65" /><line stroke="black" x1="440" x2="440" y1="65" y2="70" /><text fill="black" font-family="Arial" font-size="8px" font-weight="bold" stroke="none" x="440" y="80">17</text><rect fill="white" height="100" width="20" x="440" y="100" /><line stroke="black" x1="440" x2="460" y1="165" y2="165" /><line stroke="black" x1="440" x2="440" y1="165" y2="170" /><text fill="black" font-family="Arial" font-size="8px" font-weight="bold" stroke="none" x="440" y="180">17</text><rect fill="grey" height="100" width="20" x="440" y="200" /><line stroke="black" x1="440" x2="460" y1="265" y2="265" /><line stroke="black" x1="440" x2="440" y1="265" y2="270" /><text fill="black" font-family="Arial" font-size="8px" font-weight="bold" stroke="none" x="440" y="280">17</text><rect fill="grey" height="100" width="20" x="460" y="0" /><line stroke="black" x1="460" x2="480" y1="65" y2="65" /><line stroke="black" x1="460" x2="460" y1="65" y2="70" /><text fill="black" font-family="Arial" font-size="8px" font-weight="bold" stroke="none" x="460" y="80">18</text><rect fill="white" height="100" width="20" x="460" y="100" /><line stroke="black" x1="460" x2="480" y1="165" y2="165" /><line stroke="black" x1="460" x2="460" y1="165" y2="170" /><text fill="black" font-family="Arial" font-size="8px" font-weight="bold" stroke="none" x="460" y="180">18</text><rect fill="grey" height="100" width="20" x="460" y="200" /><line stroke="black" x1="460" x2="480" y1="265" y2="265" /><line stroke="black" x1="460" x2="460" y1="265" y2="270" /><text fill="black" font-family="Arial" font-size="8px" font-weight="bold" stroke="none" x="460" y="280">18</text><rect fill="grey" height="100" width="20" x="480" y="0" /><line stroke="black" x1="480" x2="500" y1="65" y2="65" /><line stroke="black" x1="480" x2="480" y1="65" y2="70" /><text fill="black" font-family="Arial" font-size="8px" font-weight="bold" stroke="none" x="480" y="80">19</text><rect fill="white" height="100" width="20" x="480" y="100" /><line stroke="black" x1="480" x2="500" y1="165" y2="165" /><line stroke="black" x1="480" x2="480" y1="165" y2="170" /><text fill="black" font-family="Arial" font-size="8px" font-weight="bold" stroke="none" x="480" y="180">19</text><rect fill="grey" height="100" width="20" x="480" y="200" /><line stroke="black" x1="480" x2="500" y1="265" y2="265" /><line stroke="black" x1="480" x2="480" y1="265" y2="270" /><text fill="black" font-family="Arial" font-size="8px" font-weight="bold" stroke="none" x="480" y="280">19</text><rect fill="grey" height="100" width="20" x="500" y="0" /><line stroke="black" x1="500" x2="520" y1="65" y2="65" /><line stroke="black" x1="500" x2="500" y1="65" y2="70" /><text fill="black" font-family="Arial" font-size="8px" font-weight="bold" stroke="none" x="500" y="80">20</text><rect fill="white" height="100" width="20" x="500" y="100" /><line stroke="black" x1="500" x2="520" y1="165" y2="165" /><line stroke="black" x1="500" x2="500" y1="165" y2="170" /><text fill="black" font-family="Arial" font-size="8px" font-weight="bold" stroke="none" x="500" y="180">20</text><rect fill="grey" height="100" width="20" x="500" y="200" /><line stroke="black" x1="500" x2="520" y1="265" y2="265" /><line stroke="black" x1="500" x2="500" y1="265" y2="270" /><text fill="black" font-family="Arial" font-size="8px" font-weight="bold" stroke="none" x="500" y="280">20</text><rect fill="yellow" height="19.5" rx="2" ry="2" width="19.5" x="100.5" y="145" /><text fill="black" font-family="Arial" font-size="8px" font-weight="bold" stroke="none" x="105.5" y="155">0</text><rect fill="yellow" height="19.5" rx="2" ry="2" width="19.5" x="120.5" y="145" /><text fill="black" font-family="Arial" font-size="8px" font-weight="bold" stroke="none" x="125.5" y="155">1</text><rect fill="yellow" height="19.5" rx="2" ry="2" width="19.5" x="140.5" y="45" /><text fill="black" font-family="Arial" font-size="8px" font-weight="bold" stroke="none" x="145.5" y="55">2</text><rect fill="yellow" height="19.5" rx="2" ry="2" width="19.5" x="160.5" y="245" /><text fill="black" font-family="Arial" font-size="8px" font-weight="bold" stroke="none" x="165.5" y="255">3</text><rect fill="yellow" height="19.5" rx="2" ry="2" width="19.5" x="180.5" y="245" /><text fill="black" font-family="Arial" font-size="8px" font-weight="bold" stroke="none" x="185.5" y="255">4</text><rect fill="yellow" height="19.5" rx="2" ry="2" width="19.5" x="200.5" y="145" /><text fill="black" font-family="Arial" font-size="8px" font-weight="bold" stroke="none" x="205.5" y="155">5</text><rect fill="yellow" height="19.5" rx="2" ry="2" width="19.5" x="220.5" y="145" /><text fill="black" font-family="Arial" font-size="8px" font-weight="bold" stroke="none" x="225.5" y="155">6</text><rect fill="yellow" height="19.5" rx="2" ry="2" width="19.5" x="240.5" y="245" /><text fill="black" font-family="Arial" font-size="8px" font-weight="bold" stroke="none" x="245.5" y="255">7</text><rect fill="yellow" height="19.5" rx="2" ry="2" width="19.5" x="260.5" y="245" /><text fill="black" font-family="Arial" font-size="8px" font-weight="bold" stroke="none" x="265.5" y="255">8</text><rect fill="yellow" height="19.5" rx="2" ry="2" width="19.5" x="300.5" y="145" /><text fill="black" font-family="Arial" font-size="8px" font-weight="bold" stroke="none" x="305.5" y="155">10</text><rect fill="yellow" height="19.5" rx="2" ry="2" width="19.5" x="320.5" y="145" /><text fill="black" font-family="Arial" font-size="8px" font-weight="bold" stroke="none" x="325.5" y="155">11</text><rect fill="yellow" height="19.5" rx="2" ry="2" width="19.5" x="340.5" y="245" /><text fill="black" font-family="Arial" font-size="8px" font-weight="bold" stroke="none" x="345.5" y="255">12</text><rect fill="yellow" height="19.5" rx="2" ry="2" width="19.5" x="360.5" y="245" /><text fill="black" font-family="Arial" font-size="8px" font-weight="bold" stroke="none" x="365.5" y="255">13</text><rect fill="yellow" height="19.5" rx="2" ry="2" width="19.5" x="380.5" y="245" /><text fill="black" font-family="Arial" font-size="8px" font-weight="bold" stroke="none" x="385.5" y="255">14</text><rect fill="yellow" height="19.5" rx="2" ry="2" width="19.5" x="400.5" y="145" /><text fill="black" font-family="Arial" font-size="8px" font-weight="bold" stroke="none" x="405.5" y="155">15</text><rect fill="yellow" height="19.5" rx="2" ry="2" width="19.5" x="420.5" y="145" /><text fill="black" font-family="Arial" font-size="8px" font-weight="bold" stroke="none" x="425.5" y="155">16</text><rect fill="yellow" height="19.5" rx="2" ry="2" width="19.5" x="440.5" y="245" /><text fill="black" font-family="Arial" font-size="8px" font-weight="bold" stroke="none" x="445.5" y="255">17</text><line stroke="green" x1="100" x2="100" y1="65" y2="40" /><line stroke="green" x1="100" x2="103" y1="40" y2="45" /><line stroke="green" x1="100" x2="97" y1="40" y2="45" /><line stroke="green" x1="500" x2="500" y1="65" y2="40" /><line stroke="green" x1="500" x2="503" y1="40" y2="45" /><line stroke="green" x1="500" x2="497" y1="40" y2="45" /><line stroke="green" x1="100" x2="100" y1="165" y2="140" /><line stroke="green" x1="100" x2="103" y1="140" y2="145" /><line stroke="green" x1="100" x2="97" y1="140" y2="145" /><line stroke="green" x1="200" x2="200" y1="165" y2="140" /><line stroke="green" x1="200" x2="203" y1="140" y2="145" /><line stroke="green" x1="200" x2="197" y1="140" y2="145" /><line stroke="green" x1="300" x2="300" y1="165" y2="140" /><line stroke="green" x1="300" x2="303" y1="140" y2="145" /><line stroke="green" x1="300" x2="297" y1="140" y2="145" /><line stroke="green" x1="400" x2="400" y1="165" y2="140" /><line stroke="green" x1="400" x2="403" y1="140" y2="145" /><line stroke="green" x1="400" x2="397" y1="140" y2="145" /><line stroke="green" x1="500" x2="500" y1="165" y2="140" /><line stroke="green" x1="500" x2="503" y1="140" y2="145" /><line stroke="green" x1="500" x2="497" y1="140" y2="145" /><line stroke="green" x1="100" x2="100" y1="265" y2="240" /><line stroke="green" x1="100" x2="103" y1="240" y2="245" /><line stroke="green" x1="100" x2="97" y1="240" y2="245" /><line stroke="green" x1="300" x2="300" y1="265" y2="240" /><line stroke="green" x1="300" x2="303" y1="240" y2="245" /><line stroke="green" x1="300" x2="297" y1="240" y2="245" /><line stroke="green" x1="500" x2="500" y1="265" y2="240" /><line stroke="green" x1="500" x2="503" y1="240" y2="245" /><line stroke="green" x1="500" x2="497" y1="240" y2="245" /><line stroke="green" x1="260" x2="260" y1="65" y2="40" /><line stroke="green" x1="260" x2="263" y1="65" y2="60" /><line stroke="green" x1="260" x2="257" y1="65" y2="60" /><line stroke="green" x1="180" x2="180" y1="165" y2="140" /><line stroke="green" x1="180" x2="183" y1="165" y2="160" /><line stroke="green" x1="180" x2="177" y1="165" y2="160" /><line stroke="green" x1="280" x2="280" y1="165" y2="140" /><line stroke="green" x1="280" x2="283" y1="165" y2="160" /><line stroke="green" x1="280" x2="277" y1="165" y2="160" /><line stroke="green" x1="380" x2="380" y1="165" y2="140" /><line stroke="green" x1="380" x2="383" y1="165" y2="160" /><line stroke="green" x1="380" x2="377" y1="165" y2="160" /><line stroke="green" x1="480" x2="480" y1="165" y2="140" /><line stroke="green" x1="480" x2="483" y1="165" y2="160" /><line stroke="green" x1="480" x2="477" y1="165" y2="160" /><line stroke="green" x1="300" x2="300" y1="265" y2="240" /><line stroke="green" x1="300" x2="303" y1="265" y2="260" /><line stroke="green" x1="300" x2="297" y1="265" y2="260" /><line stroke="green" x1="500" x2="500" y1="265" y2="240" /><line stroke="green" x1="500" x2="503" y1="265" y2="260" /><line stroke="green" x1="500" x2="497" y1="265" y2="260" /></svg>